<svg width="191" height="149" xmlns="http://www.w3.org/2000/svg" xmlns:xlink="http://www.w3.org/1999/xlink" overflow="hidden"><g transform="translate(-505 -179)"><path d="M506.5 199.5C506.5 189.007 515.007 180.5 525.5 180.5L676.5 180.5C686.994 180.5 695.5 189.007 695.5 199.5L695.5 199.5C695.5 209.994 686.993 218.5 676.5 218.5L525.5 218.5C515.007 218.5 506.5 209.993 506.5 199.5Z" stroke="#172C51" stroke-width="1.33333" stroke-miterlimit="8" fill-rule="evenodd"/><path d="M506.5 307.5C506.5 297.007 515.007 288.5 525.5 288.5L676.5 288.5C686.994 288.5 695.5 297.007 695.5 307.5L695.5 307.5C695.5 317.994 686.993 326.5 676.5 326.5L525.5 326.5C515.007 326.5 506.5 317.993 506.5 307.5Z" stroke="#172C51" stroke-width="1.33333" stroke-miterlimit="8" fill-rule="evenodd"/><path d="M506.5 253.5C506.5 243.007 515.007 234.5 525.5 234.5L676.5 234.5C686.994 234.5 695.5 243.007 695.5 253.5L695.5 253.5C695.5 263.994 686.993 272.5 676.5 272.5L525.5 272.5C515.007 272.5 506.5 263.993 506.5 253.5Z" stroke="#172C51" stroke-width="1.33333" stroke-miterlimit="8" fill-rule="evenodd"/></g></svg>